<svg xmlns="http://www.w3.org/2000/svg" version="1.1" xmlns:xlink="http://www.w3.org/1999/xlink" xmlns:svgjs="http://svgjs.dev/svgjs" width="1000" height="535" viewBox="0 0 1000 535"><g transform="matrix(1,0,0,1,-0.6060506665398293,0.11147734110022611)"><svg viewBox="0 0 396 212" data-background-color="#ffffff" preserveAspectRatio="xMidYMid meet" height="535" width="1000" xmlns="http://www.w3.org/2000/svg" xmlns:xlink="http://www.w3.org/1999/xlink"><defs></defs><g id="tight-bounds" transform="matrix(1,0,0,1,0.2399960639497749,-0.0441741987163482)"><svg viewBox="0 0 395.52 212.0883483974327" height="212.0883483974327" width="395.52"><g><svg viewBox="0 0 395.52 212.0883483974327" height="212.0883483974327" width="395.52"><g transform="matrix(1,0,0,1,0,156.74875215517804)"><svg viewBox="0 0 395.52 55.33959624225464" height="55.33959624225464" width="395.52"><g><svg viewBox="0 0 395.52 55.33959624225464" height="55.33959624225464" width="395.52"><g><svg viewBox="0 0 395.52 55.33959624225464" height="55.33959624225464" width="395.52"><g transform="matrix(1,0,0,1,0,0)"><svg width="395.52" viewBox="3.0999999046325684 -35 250.1199951171875 35" height="55.33959624225464" data-palette-color="#323660"><path d="M7.75 0L3.1 0 3.1-35 7.75-35 14.7-13.65 21.65-35 26.3-35 26.3 0 21.65 0 21.65-20.8 17-6.55 12.4-6.55 7.75-20.8 7.75 0ZM35.15 0L30.5 0 30.5-35 35.15-35 35.15 0ZM43.5 0L38.85 0 38.85-35 43.5-35 52.8-11.65 52.8-35 57.45-35 57.45 0 52.8 0 43.5-23.35 43.5 0ZM72.04 0L67.39 0 67.39-30.35 60.44-30.35 60.44-35 78.99-35 78.99-30.35 72.04-30.35 72.04 0ZM92.99 0L88.34 0 88.34-17 81.49-35 86.14-35 90.69-23.05 95.19-35 99.84-35 92.99-17 92.99 0ZM120.89 0L109.54 0Q108.14 0 107.09-1.05 106.04-2.1 106.04-3.65L106.04-3.65 106.04-31.35Q106.04-32.9 107.09-33.95 108.14-35 109.54-35L109.54-35 120.89-35Q122.49-35 123.51-33.95 124.54-32.9 124.54-31.35L124.54-31.35 124.54-3.65Q124.54-2.1 123.51-1.05 122.49 0 120.89 0L120.89 0ZM112.39-4.6L112.39-4.6 118.04-4.6Q118.89-4.6 119.41-5.15 119.94-5.7 119.94-6.5L119.94-6.5 119.94-28.5Q119.94-29.35 119.41-29.88 118.89-30.4 118.04-30.4L118.04-30.4 112.39-30.4Q111.69-30.4 111.16-29.88 110.64-29.35 110.64-28.5L110.64-28.5 110.64-6.5Q110.64-5.7 111.16-5.15 111.69-4.6 112.39-4.6ZM143.19 0L131.84 0Q130.34 0 129.29-1.05 128.24-2.1 128.24-3.6L128.24-3.6 128.24-35 132.89-35 132.89-6.4Q132.89-5.7 133.41-5.18 133.94-4.65 134.69-4.65L134.69-4.65 140.34-4.65Q141.09-4.65 141.61-5.18 142.14-5.7 142.14-6.4L142.14-6.4 142.14-35 146.79-35 146.79-3.6Q146.79-2.1 145.74-1.05 144.69 0 143.19 0L143.19 0ZM155.53 0L150.88 0 150.88-35 165.88-35Q167.33-35 168.38-33.95 169.43-32.9 169.43-31.4L169.43-31.4 169.43-20.65Q169.43-19.15 168.38-18.1 167.33-17.05 165.88-17.05L165.88-17.05 164.83-17.05 169.43 0 164.83 0 160.18-17.05 155.53-17.05 155.53 0ZM155.53-30.35L155.53-21.7 163.03-21.7Q163.73-21.7 164.28-22.23 164.83-22.75 164.83-23.5L164.83-23.5 164.83-28.55Q164.83-29.3 164.28-29.83 163.73-30.35 163.03-30.35L163.03-30.35 155.53-30.35ZM189.63 0L173.03 0 173.03-35 177.68-35 177.68-4.65 189.63-4.65 189.63 0ZM207.48 0L196.13 0Q194.73 0 193.68-1.05 192.63-2.1 192.63-3.65L192.63-3.65 192.63-31.35Q192.63-32.9 193.68-33.95 194.73-35 196.13-35L196.13-35 207.48-35Q209.08-35 210.1-33.95 211.13-32.9 211.13-31.35L211.13-31.35 211.13-3.65Q211.13-2.1 210.1-1.05 209.08 0 207.48 0L207.48 0ZM198.98-4.6L198.98-4.6 204.63-4.6Q205.48-4.6 206-5.15 206.53-5.7 206.53-6.5L206.53-6.5 206.53-28.5Q206.53-29.35 206-29.88 205.48-30.4 204.63-30.4L204.63-30.4 198.98-30.4Q198.28-30.4 197.75-29.88 197.23-29.35 197.23-28.5L197.23-28.5 197.23-6.5Q197.23-5.7 197.75-5.15 198.28-4.6 198.98-4.6ZM225.03 0L220.18 0 213.33-35 217.98-35 222.63-11.35 227.28-35 231.93-35 225.03 0ZM253.22 0L234.62 0 234.62-35 253.22-35 253.22-30.4 239.27-30.4 239.27-21.7 248.57-21.7 247.52-17.05 239.27-17.05 239.27-4.65 253.22-4.65 253.22 0Z" opacity="1" transform="matrix(1,0,0,1,0,0)" fill="#323660" class="undefined-text-0" data-fill-palette-color="primary" id="text-0"></path></svg></g></svg></g></svg></g></svg></g><g transform="matrix(1,0,0,1,132.44997444489746,0)"><svg viewBox="0 0 130.62005111020503 130.62005111020503" height="130.62005111020503" width="130.62005111020503"><g><svg></svg></g><g id="icon-0"><svg viewBox="0 0 130.62005111020503 130.62005111020503" height="130.62005111020503" width="130.62005111020503"><g><path d="M0 65.31c0-36.07 29.24-65.31 65.31-65.31 36.07 0 65.31 29.24 65.31 65.31 0 36.07-29.24 65.31-65.31 65.31-36.07 0-65.31-29.24-65.31-65.31zM65.31 125.629c33.314 0 60.319-27.006 60.319-60.319 0-33.314-27.006-60.319-60.319-60.319-33.314 0-60.319 27.006-60.319 60.319 0 33.314 27.006 60.319 60.319 60.319z" data-fill-palette-color="tertiary" fill="#df5155" stroke="transparent"></path></g><g transform="matrix(1,0,0,1,27.97993049936631,31.29969151842215)"><svg viewBox="0 0 74.6601901114724 68.02066807336072" height="68.02066807336072" width="74.6601901114724"><g><svg xmlns="http://www.w3.org/2000/svg" viewBox="2.601003646850586 6.816384792327881 94.79798889160156 86.36761474609375" style="enable-background:new 0 0 100 100" xml:space="preserve" x="0" y="0" height="68.02066807336072" width="74.6601901114724" class="icon-x-0" data-fill-palette-color="accent" id="x-0"><path d="M49.74 93.055c0.088 0.045 0.174 0.086 0.26 0.129 0.087-0.043 0.173-0.084 0.261-0.129 18.454-9.091 54.659-41.107 45.751-70.253-2.096-6.863-6.898-11.75-13.619-14.267-6.725-2.515-14.023-2.263-20.556 0.712a20.14 20.14 0 0 0-10.589 11.347A20.352 20.352 0 0 0 50 26.334a20.352 20.352 0 0 0-1.248-5.74A20.147 20.147 0 0 0 38.163 9.247C31.63 6.272 24.331 6.02 17.609 8.535c-6.722 2.517-11.523 7.403-13.621 14.267C-4.92 51.947 31.285 83.964 49.74 93.055z m-41.462-68.3c1.709-5.666 5.441-9.729 10.983-11.805a22.01 22.01 0 0 1 16.947 0.587c3.785 1.723 6.671 4.815 8.129 8.71s1.311 8.124-0.412 11.908c-1.189 2.613-3.766 4.605-6.455 5.613-2.689 1.007-1.336 5.863 2.531 4.415 3.869-1.448 6.502-4.315 8.215-8.075a20.264 20.264 0 0 0 1.783-7.063 20.325 20.325 0 0 0 1.783 7.063c1.713 3.76 4.345 6.627 8.215 8.075 3.868 1.448 5.221-3.408 2.53-4.415-2.689-1.008-5.266-3-6.455-5.613-1.723-3.784-1.869-8.014-0.412-11.908s4.345-6.987 8.13-8.71a22.01 22.01 0 0 1 16.947-0.587c5.543 2.075 9.273 6.139 10.984 11.805C99.572 50.786 66.899 79.388 50 88.586 33.1 79.388 0.428 50.786 8.278 24.755z" fill="#fcce22" data-fill-palette-color="accent"></path></svg></g></svg></g></svg></g></svg></g><g></g></svg></g></svg><rect width="395.52" height="212.0883483974327" fill="none" stroke="none" visibility="hidden"></rect></g></svg></g></svg>